<svg width="582" height="535" xmlns="http://www.w3.org/2000/svg">
 <!-- Created with Method Draw - http://github.com/duopixel/Method-Draw/ -->

 <g>
  <title>background</title>
  <rect fill="none" id="canvas_background" height="537" width="584" y="-1" x="-1"/>
  <g display="none" overflow="visible" y="0" x="0" height="100%" width="100%" id="canvasGrid">
   <rect fill="url(#gridpattern)" stroke-width="0" y="67.518341" x="1" height="400" width="580"/>
  </g>
 </g>
 <g>
  <title>Layer 1</title>
  <g id="svg_6">
   <path fill="#003d60" stroke="#003d60" stroke-opacity="0" id="svg_5" d="m466.41704,0.00164c-1.77084,-0.12153 -11.33681,6.52778 -26.5625,18.10764l41.26736,45.53819l-8.45486,8.4375l-43.64583,-45.69444c-5.38195,4.13194 -11.18056,8.69791 -17.44792,13.64583l21.42361,23.59375l-8.47222,8.4375l-22.96875,-24.11458c-5.34722,4.21875 -10.90278,8.71527 -16.70139,13.38541l21.42361,23.62847l-8.47222,8.4375l-22.93403,-24.07986c-5.90277,4.75695 -11.97916,9.73958 -18.26388,14.82639l44.32291,48.87152l-8.4375,8.47223l-46.45833,-48.6632c-5.55555,4.56598 -11.25,9.18403 -17.01389,13.94098l23.87153,26.35416l-8.4375,8.4375l-25.34722,-26.57986c-5.41667,4.46181 -10.88542,8.99306 -16.42361,13.5243l23.50694,25.95486l-8.45486,8.45486l-25,-26.21527c-6.9618,5.76389 -13.99305,11.59722 -21.05902,17.48264l43.81944,48.35069l-8.45486,8.4375l-45.85069,-48.10764c-5.625,4.70486 -11.25,9.39236 -16.89236,14.09722l23.125,25.53819l-8.45487,8.4375l-24.51388,-25.69444c-5.45139,4.6007 -10.88542,9.11458 -16.31945,13.71528l22.58681,24.93055l-8.45486,8.4375l-23.92361,-25.0868c-6.00695,5.06944 -11.97917,10.12152 -17.89931,15.13889l44.94792,49.56596l-8.45486,8.4375l-46.92708,-49.21874c-5.625,4.7743 -11.21528,9.56597 -16.71875,14.21875l24.02777,26.51041l-8.47222,8.50694l-25.3993,-26.56249c-5.46875,4.70486 -10.85069,9.27083 -16.14583,13.87152l23.26388,25.67708l-8.45486,8.42014l-24.54861,-25.7118c-6.05902,5.24305 -11.94444,10.36458 -17.69097,15.34722l45.34722,50.03472l-8.45486,8.4375l-47.22222,-49.53125c-51.07638,44.61805 -86.51041,77.30902 -86.31943,81.54513c0.67708,14.87848 116.18054,153.36805 129.98262,153.10763c13.80209,-0.19097 425.57289,-391.47566 425.57289,-404.84372c0,-13.36805 -89.47916,-129.28818 -102.3611,-130.19096zm-340.3472,447.81247c-16.59722,0 -30.05208,-18.24653 -30.05208,-40.72917c0,-22.51736 13.45486,-40.76388 30.05208,-40.76388s30.03472,18.24652 30.03472,40.76388c0,22.48264 -13.4375,40.72917 -30.03472,40.72917z"/>
  </g>
 </g>
</svg>